<svg width="158" height="44" viewBox="0 0 158 44" fill="none" xmlns="http://www.w3.org/2000/svg">
<path d="M53.6407 7.49273C51.6535 7.49273 49.7813 7.87228 48.0736 8.61674L48.0734 8.61684C46.3687 9.35705 44.8546 10.4026 43.5731 11.7219C42.2867 13.0461 41.2778 14.6131 40.5709 16.3763C39.8619 18.1488 39.5 20.0836 39.5 22.1208C39.5 24.1581 39.8619 26.1089 40.5709 27.8839C41.2779 29.658 42.2869 31.2358 43.5736 32.5735C44.8495 33.9004 46.3661 34.9538 48.0788 35.702C49.7921 36.4465 51.6644 36.8261 53.6461 36.8261C56.0234 36.8261 58.2231 36.3275 60.1908 35.3485L60.1909 35.3485C62.1601 34.3714 63.8236 32.9866 65.1344 31.2329L65.1345 31.2327C66.052 30.0079 66.7409 28.6222 67.1887 27.0957L61.3548 26.0499C61.0843 26.8979 60.6985 27.6677 60.2042 28.346L60.2038 28.3466C59.4638 29.3522 58.5273 30.1545 57.4171 30.7281L57.4167 30.7283C56.3066 31.2978 55.0495 31.5879 53.684 31.5879C52.4804 31.5879 51.3587 31.3574 50.348 30.8995C49.3447 30.4452 48.4577 29.7895 47.715 28.9578C46.9743 28.1281 46.393 27.1235 45.9888 25.9705C45.5788 24.803 45.3735 23.5086 45.3735 22.1234C45.3735 20.7385 45.5788 19.4492 45.9889 18.2947C46.3696 17.2144 46.9165 16.2554 47.6135 15.4402L47.6099 15.4367L47.7119 15.3215C48.4445 14.4942 49.3295 13.849 50.3357 13.4028C51.3435 12.9558 52.4703 12.7309 53.6758 12.7309C55.0354 12.7309 56.2867 13.0127 57.3915 13.5714L57.3919 13.5717C58.4918 14.132 59.4282 14.929 60.1788 15.934L60.1793 15.9347C60.6967 16.6356 61.0946 17.4173 61.367 18.2667L67.1911 17.2226C66.7447 15.6829 66.054 14.2837 65.1264 13.0461C63.8129 11.2951 62.1496 9.91574 60.1781 8.94936C58.2075 7.98339 56.0075 7.49273 53.6407 7.49273Z" fill="#310B56"/>
<path d="M113.449 16.103V36.6539H118.897V16.103H113.449Z" fill="#310B56"/>
<path d="M116.133 7.45447C114.231 7.45447 112.828 8.92592 112.828 10.7816C112.828 12.6372 114.23 14.1501 116.133 14.1501C118.036 14.1501 119.518 12.6819 119.518 10.7816C119.518 8.88128 118.07 7.45447 116.133 7.45447Z" fill="#310B56"/>
<path d="M111.003 21.705L111.317 21.8453L111.323 16.4569L111.172 16.4059C110.551 16.1971 109.657 16.0743 108.929 16.0743C106.725 16.0743 104.374 17.1345 103.149 19.0778V16.0743H97.7274V36.6523H103.149V29.3588C103.149 26.3904 103.775 24.3562 104.72 23.0697C105.659 21.7911 106.924 21.2332 108.257 21.2332C109.111 21.2332 110.332 21.4037 111.003 21.7035V21.705Z" fill="#310B56"/>
<path fill-rule="evenodd" clip-rule="evenodd" d="M77.4693 22.2774L82.3367 23.1526L82.3622 22.915C82.4753 21.89 82.8671 21.1758 83.466 20.7135C84.0696 20.2464 84.9138 20.0152 85.9682 20.0152C87.1293 20.0152 88.0578 20.35 88.6917 20.935C89.3241 21.5169 89.6888 22.3666 89.6904 23.4427L86.1816 23.7807C83.2064 24.0995 80.9415 24.7914 79.4156 25.9233C77.8754 27.0648 77.1061 28.643 77.1061 30.6756C77.1061 34.2339 79.9492 36.8564 83.9565 36.8564C86.1991 36.8564 88.421 35.8185 89.692 34.1542V36.6539H94.9496V24.1219C94.9496 21.4085 94.0418 19.3074 92.449 17.8885C90.8595 16.4729 88.6105 15.7571 85.9698 15.7571C81.6757 15.7571 78.1589 17.9491 77.5043 22.0621L77.4693 22.2774ZM85.0619 32.7162C84.1954 32.7162 83.5217 32.4707 83.0662 32.0801C82.6139 31.6911 82.3654 31.1491 82.3654 30.5162C82.3654 29.8833 82.66 29.3078 83.2764 28.8487C83.9008 28.3832 84.8532 28.034 86.1529 27.8778L89.692 27.4697V27.6562C89.692 29.083 89.2619 30.3472 88.4735 31.2527C87.6899 32.155 86.5384 32.7146 85.0619 32.7146V32.7162Z" fill="#310B56"/>
<path d="M69.1759 7.45447V36.6539H74.6788V7.45447H69.1759Z" fill="#310B56"/>
<path d="M151.868 16.103L147.169 28.0579L142.467 16.1062H136.519L144.191 35.6033L144.169 35.6623C143.332 37.8432 142.442 39.0245 140.133 39.0245C139.07 39.0245 138.145 38.6578 137.981 38.5781L137.849 38.5191V43.4261L137.914 43.4468C138.924 43.7704 139.953 43.9426 140.889 43.9426C144.86 43.9426 147.571 41.9307 149.176 37.7922L157.761 16.1046L151.868 16.103Z" fill="#310B56"/>
<path d="M134.528 31.5652C133.851 31.9 133.008 32.0179 132.268 32.0179C131.527 32.0179 130.952 31.7788 130.547 31.3372C130.14 30.894 129.891 30.2213 129.891 29.311V20.7868H134.97V16.1461H129.891V10.289H124.407V16.1461H121.008V20.7868H124.407V29.7861C124.407 32.1726 125.186 33.9501 126.511 35.1282C127.833 36.3032 129.671 36.8564 131.748 36.8564C132.838 36.8564 133.862 36.7161 134.822 36.4068V31.4201L134.529 31.5652H134.528Z" fill="#310B56"/>
<path d="M28.3508 36.6667C30.8138 36.6667 32.8105 34.6682 32.8105 32.2029C32.8105 29.7376 30.8138 27.7391 28.3508 27.7391C25.8878 27.7391 23.8911 29.7376 23.8911 32.2029C23.8911 34.6682 25.8878 36.6667 28.3508 36.6667Z" fill="#B7A1F9"/>
<path fill-rule="evenodd" clip-rule="evenodd" d="M11.3702 27.0073C15.0449 18.7928 23.2625 13.0724 32.8105 13.0724V18.6711C22.9145 18.6711 14.8921 26.728 14.8921 36.6667H9.31754C9.31754 31.4985 5.14594 27.3089 0 27.3089V21.7103C4.5584 21.7103 8.63846 23.7672 11.3702 27.0073Z" fill="#310B56"/>
</svg>
